<mxfile host="app.diagrams.net" modified="2022-01-24T18:22:39.770Z" agent="5.0 (Windows NT 10.0; Win64; x64) AppleWebKit/537.36 (KHTML, like Gecko) Chrome/97.0.4692.71 Safari/537.36" etag="fir0TsLrlh9lqZ25UA_x" version="16.4.5" type="github">
  <diagram id="prtHgNgQTEPvFCAcTncT" name="Page-1">
    <mxGraphModel dx="1185" dy="662" grid="1" gridSize="10" guides="1" tooltips="1" connect="1" arrows="1" fold="1" page="1" pageScale="1" pageWidth="827" pageHeight="1169" math="0" shadow="0">
      <root>
        <mxCell id="0" />
        <mxCell id="1" parent="0" />
        <mxCell id="GMWAnTnB9fffkbx5y953-4" style="edgeStyle=orthogonalEdgeStyle;rounded=0;orthogonalLoop=1;jettySize=auto;html=1;exitX=0.5;exitY=1;exitDx=0;exitDy=0;entryX=0.5;entryY=0;entryDx=0;entryDy=0;" edge="1" parent="1" source="GMWAnTnB9fffkbx5y953-1" target="GMWAnTnB9fffkbx5y953-2">
          <mxGeometry relative="1" as="geometry" />
        </mxCell>
        <mxCell id="GMWAnTnB9fffkbx5y953-1" value="Начало" style="ellipse;whiteSpace=wrap;html=1;aspect=fixed;" vertex="1" parent="1">
          <mxGeometry x="130" y="40" width="80" height="80" as="geometry" />
        </mxCell>
        <mxCell id="GMWAnTnB9fffkbx5y953-2" value="Объявление А, В, С" style="rounded=1;whiteSpace=wrap;html=1;" vertex="1" parent="1">
          <mxGeometry x="110" y="160" width="120" height="60" as="geometry" />
        </mxCell>
        <mxCell id="GMWAnTnB9fffkbx5y953-7" value="B &amp;gt; A" style="rhombus;whiteSpace=wrap;html=1;" vertex="1" parent="1">
          <mxGeometry x="130" y="260" width="80" height="80" as="geometry" />
        </mxCell>
        <mxCell id="GMWAnTnB9fffkbx5y953-8" style="edgeStyle=orthogonalEdgeStyle;rounded=0;orthogonalLoop=1;jettySize=auto;html=1;exitX=0.5;exitY=1;exitDx=0;exitDy=0;entryX=0.5;entryY=0;entryDx=0;entryDy=0;" edge="1" parent="1">
          <mxGeometry relative="1" as="geometry">
            <mxPoint x="169.86" y="220" as="sourcePoint" />
            <mxPoint x="169.86" y="260" as="targetPoint" />
          </mxGeometry>
        </mxCell>
        <mxCell id="GMWAnTnB9fffkbx5y953-29" value="" style="endArrow=none;html=1;rounded=0;" edge="1" parent="1">
          <mxGeometry width="50" height="50" relative="1" as="geometry">
            <mxPoint x="210" y="299.89000000000004" as="sourcePoint" />
            <mxPoint x="300" y="299.89000000000004" as="targetPoint" />
          </mxGeometry>
        </mxCell>
        <mxCell id="GMWAnTnB9fffkbx5y953-30" value="True" style="text;html=1;align=center;verticalAlign=middle;resizable=0;points=[];autosize=1;strokeColor=none;fillColor=none;" vertex="1" parent="1">
          <mxGeometry x="210" y="280" width="40" height="20" as="geometry" />
        </mxCell>
        <mxCell id="GMWAnTnB9fffkbx5y953-31" value="C &amp;gt; B" style="rhombus;whiteSpace=wrap;html=1;" vertex="1" parent="1">
          <mxGeometry x="300" y="260" width="80" height="80" as="geometry" />
        </mxCell>
        <mxCell id="GMWAnTnB9fffkbx5y953-32" style="edgeStyle=orthogonalEdgeStyle;rounded=0;orthogonalLoop=1;jettySize=auto;html=1;exitX=0.5;exitY=1;exitDx=0;exitDy=0;entryX=0.5;entryY=0;entryDx=0;entryDy=0;" edge="1" parent="1">
          <mxGeometry relative="1" as="geometry">
            <mxPoint x="169.86" y="340" as="sourcePoint" />
            <mxPoint x="169.86" y="380" as="targetPoint" />
          </mxGeometry>
        </mxCell>
        <mxCell id="GMWAnTnB9fffkbx5y953-33" value="False" style="text;html=1;align=center;verticalAlign=middle;resizable=0;points=[];autosize=1;strokeColor=none;fillColor=none;" vertex="1" parent="1">
          <mxGeometry x="170" y="340" width="40" height="20" as="geometry" />
        </mxCell>
        <mxCell id="GMWAnTnB9fffkbx5y953-34" value="C &amp;gt; A" style="rhombus;whiteSpace=wrap;html=1;" vertex="1" parent="1">
          <mxGeometry x="130" y="380" width="80" height="80" as="geometry" />
        </mxCell>
        <mxCell id="GMWAnTnB9fffkbx5y953-35" style="edgeStyle=orthogonalEdgeStyle;rounded=0;orthogonalLoop=1;jettySize=auto;html=1;exitX=0.5;exitY=1;exitDx=0;exitDy=0;entryX=0.5;entryY=0;entryDx=0;entryDy=0;" edge="1" parent="1">
          <mxGeometry relative="1" as="geometry">
            <mxPoint x="169.86" y="460" as="sourcePoint" />
            <mxPoint x="169.86" y="500" as="targetPoint" />
          </mxGeometry>
        </mxCell>
        <mxCell id="GMWAnTnB9fffkbx5y953-36" value="False" style="text;html=1;align=center;verticalAlign=middle;resizable=0;points=[];autosize=1;strokeColor=none;fillColor=none;" vertex="1" parent="1">
          <mxGeometry x="170" y="460" width="40" height="20" as="geometry" />
        </mxCell>
        <mxCell id="GMWAnTnB9fffkbx5y953-37" value="Напечатать А" style="rounded=1;whiteSpace=wrap;html=1;" vertex="1" parent="1">
          <mxGeometry x="110" y="500" width="120" height="60" as="geometry" />
        </mxCell>
        <mxCell id="GMWAnTnB9fffkbx5y953-39" value="False" style="text;html=1;align=center;verticalAlign=middle;resizable=0;points=[];autosize=1;strokeColor=none;fillColor=none;" vertex="1" parent="1">
          <mxGeometry x="340" y="340" width="40" height="20" as="geometry" />
        </mxCell>
        <mxCell id="GMWAnTnB9fffkbx5y953-38" style="edgeStyle=orthogonalEdgeStyle;rounded=0;orthogonalLoop=1;jettySize=auto;html=1;exitX=0.5;exitY=1;exitDx=0;exitDy=0;" edge="1" parent="1">
          <mxGeometry relative="1" as="geometry">
            <mxPoint x="339.86000000000007" y="340" as="sourcePoint" />
            <mxPoint x="340" y="500" as="targetPoint" />
            <Array as="points">
              <mxPoint x="340" y="380" />
              <mxPoint x="340" y="380" />
            </Array>
          </mxGeometry>
        </mxCell>
        <mxCell id="GMWAnTnB9fffkbx5y953-40" value="Напечатать В" style="rounded=1;whiteSpace=wrap;html=1;" vertex="1" parent="1">
          <mxGeometry x="280" y="500" width="120" height="60" as="geometry" />
        </mxCell>
        <mxCell id="GMWAnTnB9fffkbx5y953-41" value="Напечатать С" style="rounded=1;whiteSpace=wrap;html=1;" vertex="1" parent="1">
          <mxGeometry x="450" y="500" width="120" height="60" as="geometry" />
        </mxCell>
        <mxCell id="GMWAnTnB9fffkbx5y953-42" value="" style="endArrow=none;html=1;rounded=0;" edge="1" parent="1">
          <mxGeometry width="50" height="50" relative="1" as="geometry">
            <mxPoint x="380" y="299.5200000000001" as="sourcePoint" />
            <mxPoint x="510" y="300" as="targetPoint" />
          </mxGeometry>
        </mxCell>
        <mxCell id="GMWAnTnB9fffkbx5y953-43" value="True" style="text;html=1;align=center;verticalAlign=middle;resizable=0;points=[];autosize=1;strokeColor=none;fillColor=none;" vertex="1" parent="1">
          <mxGeometry x="380" y="279.63" width="40" height="20" as="geometry" />
        </mxCell>
        <mxCell id="GMWAnTnB9fffkbx5y953-44" style="edgeStyle=orthogonalEdgeStyle;rounded=0;orthogonalLoop=1;jettySize=auto;html=1;" edge="1" parent="1">
          <mxGeometry relative="1" as="geometry">
            <mxPoint x="510" y="300" as="sourcePoint" />
            <mxPoint x="509.9000000000001" y="500" as="targetPoint" />
            <Array as="points">
              <mxPoint x="509.9" y="380" />
              <mxPoint x="509.9" y="380" />
            </Array>
          </mxGeometry>
        </mxCell>
        <mxCell id="GMWAnTnB9fffkbx5y953-45" value="" style="endArrow=none;html=1;rounded=0;" edge="1" parent="1">
          <mxGeometry width="50" height="50" relative="1" as="geometry">
            <mxPoint x="210" y="419.8900000000001" as="sourcePoint" />
            <mxPoint x="510" y="420" as="targetPoint" />
          </mxGeometry>
        </mxCell>
        <mxCell id="GMWAnTnB9fffkbx5y953-59" value="" style="group" vertex="1" connectable="0" parent="1">
          <mxGeometry x="292" y="397" width="96" height="60" as="geometry" />
        </mxCell>
        <mxCell id="GMWAnTnB9fffkbx5y953-56" value="" style="ellipse;whiteSpace=wrap;html=1;labelBackgroundColor=default;labelBorderColor=none;fontColor=#FFFFFF;" vertex="1" parent="GMWAnTnB9fffkbx5y953-59">
          <mxGeometry x="6.857142857142858" width="82.28571428571429" height="48" as="geometry" />
        </mxCell>
        <mxCell id="GMWAnTnB9fffkbx5y953-57" value="" style="rounded=0;labelBackgroundColor=none;labelBorderColor=none;fontColor=#FFFFFF;fillColor=default;gradientColor=none;strokeColor=none;" vertex="1" parent="GMWAnTnB9fffkbx5y953-59">
          <mxGeometry y="24" width="96" height="36" as="geometry" />
        </mxCell>
        <mxCell id="GMWAnTnB9fffkbx5y953-60" value="" style="endArrow=none;html=1;rounded=0;shadow=0;fontColor=#FFFFFF;entryX=0.5;entryY=0;entryDx=0;entryDy=0;" edge="1" parent="GMWAnTnB9fffkbx5y953-59" target="GMWAnTnB9fffkbx5y953-56">
          <mxGeometry width="50" height="50" relative="1" as="geometry">
            <mxPoint x="48" y="60" as="sourcePoint" />
            <mxPoint x="98" y="10" as="targetPoint" />
          </mxGeometry>
        </mxCell>
        <mxCell id="GMWAnTnB9fffkbx5y953-46" value="True" style="text;html=1;align=center;verticalAlign=middle;resizable=0;points=[];autosize=1;strokeColor=none;fillColor=none;" vertex="1" parent="1">
          <mxGeometry x="210" y="400" width="40" height="20" as="geometry" />
        </mxCell>
        <mxCell id="GMWAnTnB9fffkbx5y953-61" style="edgeStyle=orthogonalEdgeStyle;rounded=0;orthogonalLoop=1;jettySize=auto;html=1;exitX=0.5;exitY=1;exitDx=0;exitDy=0;entryX=0.5;entryY=0;entryDx=0;entryDy=0;" edge="1" parent="1">
          <mxGeometry relative="1" as="geometry">
            <mxPoint x="340" y="600" as="sourcePoint" />
            <mxPoint x="340" y="640" as="targetPoint" />
          </mxGeometry>
        </mxCell>
        <mxCell id="GMWAnTnB9fffkbx5y953-64" value="Конец" style="ellipse;whiteSpace=wrap;html=1;aspect=fixed;" vertex="1" parent="1">
          <mxGeometry x="300" y="640" width="80" height="80" as="geometry" />
        </mxCell>
        <mxCell id="GMWAnTnB9fffkbx5y953-65" value="" style="endArrow=none;html=1;rounded=0;shadow=0;fontColor=#FFFFFF;" edge="1" parent="1">
          <mxGeometry width="50" height="50" relative="1" as="geometry">
            <mxPoint x="340" y="600" as="sourcePoint" />
            <mxPoint x="520" y="600" as="targetPoint" />
          </mxGeometry>
        </mxCell>
        <mxCell id="GMWAnTnB9fffkbx5y953-66" value="" style="endArrow=none;html=1;rounded=0;shadow=0;fontColor=#FFFFFF;" edge="1" parent="1">
          <mxGeometry width="50" height="50" relative="1" as="geometry">
            <mxPoint x="160.0000000000001" y="600" as="sourcePoint" />
            <mxPoint x="340" y="600" as="targetPoint" />
          </mxGeometry>
        </mxCell>
        <mxCell id="GMWAnTnB9fffkbx5y953-67" value="" style="endArrow=none;html=1;rounded=0;shadow=0;fontColor=#FFFFFF;" edge="1" parent="1">
          <mxGeometry width="50" height="50" relative="1" as="geometry">
            <mxPoint x="160" y="600" as="sourcePoint" />
            <mxPoint x="160" y="560" as="targetPoint" />
          </mxGeometry>
        </mxCell>
        <mxCell id="GMWAnTnB9fffkbx5y953-68" value="" style="endArrow=none;html=1;rounded=0;shadow=0;fontColor=#FFFFFF;" edge="1" parent="1">
          <mxGeometry width="50" height="50" relative="1" as="geometry">
            <mxPoint x="340" y="600" as="sourcePoint" />
            <mxPoint x="340" y="560" as="targetPoint" />
          </mxGeometry>
        </mxCell>
        <mxCell id="GMWAnTnB9fffkbx5y953-69" value="" style="endArrow=none;html=1;rounded=0;shadow=0;fontColor=#FFFFFF;" edge="1" parent="1">
          <mxGeometry width="50" height="50" relative="1" as="geometry">
            <mxPoint x="520" y="600" as="sourcePoint" />
            <mxPoint x="520" y="560" as="targetPoint" />
          </mxGeometry>
        </mxCell>
      </root>
    </mxGraphModel>
  </diagram>
</mxfile>
